<?xml version="1.0" encoding="UTF-8" standalone="no"?>
<!-- Uploaded to: SVG Repo, www.svgrepo.com, Generator: SVG Repo Mixer Tools -->

<svg
   fill="#000000"
   width="800px"
   height="800px"
   viewBox="0 -0.06 33.834 33.834"
   version="1.1"
   id="svg8"
   sodipodi:docname="icon.svg"
   inkscape:version="1.1.2 (0a00cf5339, 2022-02-04)"
   xmlns:inkscape="http://www.inkscape.org/namespaces/inkscape"
   xmlns:sodipodi="http://sodipodi.sourceforge.net/DTD/sodipodi-0.dtd"
   xmlns="http://www.w3.org/2000/svg"
   xmlns:svg="http://www.w3.org/2000/svg">
  <defs
     id="defs12" />
  <sodipodi:namedview
     id="namedview10"
     pagecolor="#ffffff"
     bordercolor="#666666"
     borderopacity="1.0"
     inkscape:pageshadow="2"
     inkscape:pageopacity="0.0"
     inkscape:pagecheckerboard="0"
     showgrid="false"
     inkscape:zoom="1.09125"
     inkscape:cx="400"
     inkscape:cy="400"
     inkscape:window-width="3840"
     inkscape:window-height="2092"
     inkscape:window-x="0"
     inkscape:window-y="0"
     inkscape:window-maximized="1"
     inkscape:current-layer="svg8" />
  <g
     transform="matrix(0.35737818,0,0,0.35737818,-23.347019,-195.37357)"
     id="g6">
    <path
       d="m 110.965,592.309 a 2.38,2.38 0 0 1 0.489,-1.434 9.29,9.29 0 0 1 1.443,-1.482 10.139,10.139 0 0 0 1.321,-1.372 1.985,1.985 0 0 0 0.368,-1.2 1.956,1.956 0 0 0 -1.983,-2 2.073,2.073 0 0 0 -1.419,0.543 3.575,3.575 0 0 0 -0.954,1.582 l -2.152,-0.939 a 5.029,5.029 0 0 1 1.724,-2.656 4.626,4.626 0 0 1 2.9,-0.927 4.968,4.968 0 0 1 2.287,0.531 4.168,4.168 0 0 1 1.651,1.495 3.974,3.974 0 0 1 0.612,2.175 3.688,3.688 0 0 1 -0.538,1.965 8.8,8.8 0 0 1 -1.639,1.865 13.862,13.862 0 0 0 -1.358,1.322 1.536,1.536 0 0 0 -0.379,1 2.85,2.85 0 0 0 0.1,0.667 h -2.2 a 2.737,2.737 0 0 1 -0.273,-1.135 z m 1.467,6.968 a 1.851,1.851 0 0 1 -1.357,-0.543 1.831,1.831 0 0 1 -0.551,-1.359 1.875,1.875 0 0 1 0.551,-1.372 1.835,1.835 0 0 1 1.357,-0.556 1.87,1.87 0 0 1 1.909,1.928 1.834,1.834 0 0 1 -0.55,1.359 1.857,1.857 0 0 1 -1.359,0.543 z"
       id="path2" />
    <path
       d="m 97.222,610.717 a 1.475,1.475 0 0 1 -0.626,-0.14 1.459,1.459 0 0 1 -0.848,-1.333 V 580.572 A 3.576,3.576 0 0 1 99.32,577 h 26.69 a 3.576,3.576 0 0 1 3.572,3.572 v 20.416 a 3.576,3.576 0 0 1 -3.572,3.571 h -19.972 a 2.555,2.555 0 0 0 -1.637,0.594 l -6.24,5.22 a 1.467,1.467 0 0 1 -0.939,0.344 z M 99.32,579 a 1.574,1.574 0 0 0 -1.572,1.572 v 27.538 l 5.37,-4.491 a 4.561,4.561 0 0 1 2.92,-1.06 h 19.972 a 1.573,1.573 0 0 0 1.572,-1.571 V 580.572 A 1.574,1.574 0 0 0 126.01,579 Z"
       id="path4" />
  </g>
</svg>
